#!OML:ASF H:\Not Pregnant\Project 1\Capture day 1\Session 1\non-pregnant.ASF
:FULLY-SPECIFIED
:DEGREES
633
root 4.90483 14.998 29.1943 -518.26 -135.262 -546.501
lowerback 5.06278 2.23377 4.98644
upperback -2.97958 3.36256 -0.00681962
thorax -5.66232 1.46649 -3.12491
lowerneck 33.0944 -6.77052 -32.9533
upperneck 6.40708 -22.5692 38.4841
head 5.57353 -15.0516 22.1377
rclavicle -3.64149e-014 -1.63997e-014
rhumerus -24.9837 40.4352 -51.8604
rradius 120.98
rwrist -2.99737
rhand 23.452 -0.684088
rfingers 7.12502
rthumb 47.7362 -23.019
lclavicle -3.64149e-014 -1.63997e-014
lhumerus -30.7495 -1.28142 49.8141
lradius 96.8559
lwrist 47.6643
lhand -30.4912 -25.5681
lfingers 7.12502
lthumb -3.79178 4.37792
rfemur -39.0048 -6.53803 26.9896
rtibia 56.4757
rfoot -24.5708 16.9684
rtoes -8.20188
lfemur -42.9783 15.0674 -23.1435
ltibia 65.0545
lfoot -19.1685 -13.676
ltoes -48.5133
634
root 5.01009 14.9017 29.1611 -517.709 -134.131 -547.213
lowerback 5.86695 2.3141 5.10241
upperback -2.73279 3.5286 0.162091
thorax -5.85167 1.54502 -3.06333
lowerneck 32.992 -6.78057 -32.9045
upperneck 6.35857 -22.4915 38.4279
head 5.51608 -14.985 22.0739
rclavicle -2.52581e-014 9.29318e-015
rhumerus -23.1549 39.7534 -52.2919
rradius 120.768
rwrist -2.16457
rhand 20.3024 -0.241916
rfingers 7.12502
rthumb 44.8166 -23.8133
lclavicle -2.52581e-014 9.29318e-015
lhumerus -29.8047 1.36208 50.8667
lradius 96.5544
lwrist 47.8376
lhand -30.9577 -25.7237
lfingers 7.12502
lthumb -4.24227 4.21376
rfemur -40.3391 -6.58865 27.2078
rtibia 57.9808
rfoot -24.6839 18.2966
rtoes -6.45282
lfemur -44.2504 15.6905 -23.0681
ltibia 66.7891
lfoot -19.6229 -14.1774
ltoes -48.0622
635
root 5.11574 14.8005 29.1272 -517.197 -133.004 -547.855
lowerback 6.69816 2.38285 5.10773
upperback -2.48217 3.67084 0.302441
thorax -6.05871 1.61446 -2.97146
lowerneck 32.8771 -6.78472 -32.853
upperneck 6.31384 -22.4077 38.4009
head 5.46482 -14.919 22.0335
rclavicle -1.05604e-014 -2.93704e-014
rhumerus -21.3015 39.1642 -52.7412
rradius 120.416
rwrist -1.66519
rhand 17.2143 0.0544014
rfingers 7.12502
rthumb 41.9317 -24.5585
lclavicle -1.05604e-014 -2.93704e-014
lhumerus -28.8804 3.86073 51.9177
lradius 96.2982
lwrist 48.2195
lhand -31.424 -25.9211
lfingers 7.12502
lthumb -4.69251 4.00691
rfemur -41.7823 -6.76611 27.4582
rtibia 59.6488
rfoot -24.6751 19.4734
rtoes -4.60879
lfemur -45.5242 16.3189 -23.0663
ltibia 68.5051
lfoot -20.0435 -14.7577
ltoes -47.6277
636
root 5.22085 14.6956 29.0939 -516.737 -131.909 -548.403
lowerback 7.52301 2.43669 5.01952
upperback -2.22936 3.78118 0.406057
thorax -6.26551 1.67066 -2.8642
lowerneck 32.7477 -6.76845 -32.8132
upperneck 6.28767 -22.3102 38.4239
head 5.42747 -14.8538 22.0404
rclavicle 3.97694e-014 -4.02539e-014
rhumerus -19.4419 38.6656 -53.2042
rradius 119.955
rwrist -1.51397
rhand 14.2055 0.167619
rfingers 7.12502
rthumb 39.1033 -25.3228
lclavicle 3.97694e-014 -4.02539e-014
lhumerus -27.9384 6.18379 52.9584
lradius 96.063
lwrist 48.7984
lhand -31.8809 -26.1809
lfingers 7.12502
lthumb -5.13374 3.73693
rfemur -43.3309 -7.09441 27.7317
rtibia 61.4669
rfoot -24.5617 20.5265
rtoes -2.69343
lfemur -46.7973 16.9251 -23.1466
ltibia 70.1911
lfoot -20.408 -15.4529
ltoes -47.1176
637
root 5.32505 14.5868 29.0612 -516.354 -130.845 -548.831
lowerback 8.33995 2.47976 4.82947
upperback -1.98401 3.86191 0.471138
thorax -6.48163 1.71473 -2.73846
lowerneck 32.6153 -6.72897 -32.7919
upperneck 6.28977 -22.203 38.4909
head 5.40701 -14.7924 22.0936
rclavicle -4.8901e-014 1.65488e-014
rhumerus -17.593 38.2607 -53.6695
rradius 119.408
rwrist -1.7031
rhand 11.3145 0.103691
rfingers 7.12502
rthumb 36.372 -26.1206
lclavicle -4.8901e-014 1.65488e-014
lhumerus -26.9668 8.30772 54.0009
lradius 95.8322
lwrist 49.5373
lhand -32.3136 -26.504
lfingers 7.12502
lthumb -5.5515 3.40328
rfemur -44.9844 -7.55535 28.0002
rtibia 63.4242
rfoot -24.3551 21.4802
rtoes -0.732268
lfemur -48.0696 17.4949 -23.3261
ltibia 71.8443
lfoot -20.6992 -16.2609
ltoes -46.5076
638
root 5.42814 14.4733 29.0289 -516.045 -129.827 -549.124
lowerback 9.12772 2.50594 4.54052
upperback -1.75037 3.90156 0.497767
thorax -6.70003 1.74129 -2.59234
lowerneck 32.469 -6.67494 -32.7639
upperneck 6.32405 -22.0812 38.5757
head 5.3944 -14.7265 22.1651
rclavicle 3.7123e-014 7.8023e-015
rhumerus -15.742 37.9536 -54.1322
rradius 118.783
rwrist -2.17696
rhand 8.5237 -0.100575
rfingers 7.12502
rthumb 33.7248 -26.945
lclavicle 3.7123e-014 7.8023e-015
lhumerus -25.951 10.2436 55.036
lradius 95.5833
lwrist 50.357
lhand -32.7153 -26.8709
lfingers 7.12502
lthumb -5.93935 3.02582
rfemur -46.7535 -8.12787 28.2529
rtibia 65.5049
rfoot -24.0844 22.3447
rtoes 1.1766
lfemur -49.3591 18.0087 -23.6089
ltibia 73.4669
lfoot -20.911 -17.1831
ltoes -45.7326
639
root 5.5302 14.3537 28.9965 -515.816 -128.859 -549.28
lowerback 9.89407 2.51975 4.16026
upperback -1.54473 3.90635 0.49385
thorax -6.94183 1.75267 -2.42246
lowerneck 32.348 -6.60518 -32.7285
upperneck 6.38373 -21.9469 38.6499
head 5.37635 -14.656 22.2358
rclavicle 3.14452e-014 -1.76918e-014
rhumerus -13.9204 37.7452 -54.5836
rradius 118.093
rwrist -2.86804
rhand 5.84751 -0.401726
rfingers 7.12502
rthumb 31.178 -27.7691
lclavicle 3.14452e-014 -1.76918e-014
lhumerus -24.8961 11.9743 56.0741
lradius 95.2938
lwrist 51.174
lhand -33.0729 -27.2591
lfingers 7.12502
lthumb -6.28456 2.6277
rfemur -48.634 -8.76219 28.4739
rtibia 67.6929
rfoot -23.7616 23.1366
rtoes 3.02858
lfemur -50.6737 18.4665 -23.9971
ltibia 75.0686
lfoot -21.1113 -18.1451
ltoes -44.8975
640
root 5.63141 14.2273 28.9644 -515.639 -127.947 -549.312
lowerback 10.6031 2.52645 3.7257
upperback -1.36224 3.88406 0.457451
thorax -7.178 1.75244 -2.24946
lowerneck 32.2437 -6.54271 -32.6656
upperneck 6.46197 -21.8183 38.7017
head 5.35521 -14.5864 22.2841
rclavicle -8.54774e-015 -2.43511e-015
rhumerus -12.1222 37.6005 -55.0121
rradius 117.341
rwrist -3.67921
rhand 3.30666 -0.760532
rfingers 7.12502
rthumb 28.7536 -28.5664
lclavicle -8.54774e-015 -2.43511e-015
lhumerus -23.7694 13.5008 57.1282
lradius 94.943
lwrist 51.9035
lhand -33.3822 -27.6531
lfingers 7.12502
lthumb -6.58316 2.22457
rfemur -50.638 -9.43131 28.6663
rtibia 69.9651
rfoot -23.4055 23.8885
rtoes 4.7989
lfemur -52.0428 18.8663 -24.4879
ltibia 76.6622
lfoot -21.3084 -19.1339
ltoes -43.9211
641
root 5.73173 14.094 28.9328 -515.493 -127.093 -549.255
lowerback 11.2598 2.52961 3.26432
upperback -1.20421 3.84369 0.401048
thorax -7.41104 1.74425 -2.0767
lowerneck 32.1686 -6.47608 -32.5927
upperneck 6.55411 -21.6876 38.732
head 5.32695 -14.5154 22.318
rclavicle -1.89591e-014 -5.79457e-014
rhumerus -10.3567 37.5046 -55.3979
rradius 116.533
rwrist -4.51356
rhand 0.902537 -1.1188
rfingers 7.12502
rthumb 26.4546 -29.2925
lclavicle -1.89591e-014 -5.79457e-014
lhumerus -22.5718 14.8195 58.2069
lradius 94.5161
lwrist 52.4905
lhand -33.6437 -28.0345
lfingers 7.12502
lthumb -6.83558 1.83519
rfemur -52.7408 -10.1046 28.8394
rtibia 72.2927
rfoot -23.0286 24.6249
rtoes 6.49212
lfemur -53.4662 19.2226 -25.0575
ltibia 78.2598
lfoot -21.516 -20.1429
ltoes -42.719
642
root 5.83158 13.9536 28.9017 -515.35 -126.301 -549.139
lowerback 11.8493 2.53241 2.81635
upperback -1.06144 3.79456 0.325105
thorax -7.61951 1.73173 -1.92635
lowerneck 32.105 -6.42157 -32.5064
upperneck 6.65814 -21.5716 38.7443
head 5.30216 -14.4501 22.3328
rclavicle 9.67584e-014 -1.23246e-014
rhumerus -8.61698 37.418 -55.7284
rradius 115.669
rwrist -5.27385
rhand -1.33854 -1.44876
rfingers 7.12502
rthumb 24.3077 -29.9275
lclavicle 9.67584e-014 -1.23246e-014
lhumerus -21.2734 15.9208 59.3132
lradius 94.0001
lwrist 52.9318
lhand -33.8512 -28.3973
lfingers 7.12502
lthumb -7.03591 1.4658
rfemur -54.9408 -10.773 29.0087
rtibia 74.6514
rfoot -22.6364 25.3738
rtoes 8.11547
lfemur -54.9663 19.5448 -25.694
ltibia 79.8759
lfoot -21.7458 -21.1463
ltoes -41.2523
643
root 5.93114 13.8058 28.8716 -515.192 -125.561 -548.989
lowerback 12.3811 2.53855 2.39356
upperback -0.93564 3.74551 0.238168
thorax -7.8101 1.71862 -1.79821
lowerneck 32.0532 -6.377 -32.4135
upperneck 6.76757 -21.4677 38.7371
head 5.27842 -14.389 22.3289
rclavicle 2.47984e-014 3.97569e-016
rhumerus -6.91072 37.3304 -55.9912
rradius 114.748
rwrist -5.86958
rhand -3.39717 -1.70923
rfingers 7.12502
rthumb 22.3327 -30.4385
lclavicle 2.47984e-014 3.97569e-016
lhumerus -19.8996 16.7863 60.4416
lradius 93.4012
lwrist 53.2302
lhand -34.0505 -28.7597
lfingers 7.12502
lthumb -7.22836 1.09686
rfemur -57.2265 -11.4249 29.181
rtibia 77.0213
rfoot -22.2371 26.154
rtoes 9.67084
lfemur -56.5491 19.8503 -26.3923
ltibia 81.5226
lfoot -21.9702 -22.151
ltoes -39.408
644
root 6.03071 13.6507 28.8425 -514.998 -124.867 -548.834
lowerback 12.8631 2.54644 2.00125
upperback -0.823599 3.6972 0.148855
thorax -7.98423 1.70513 -1.68678
lowerneck 31.989 -6.34271 -32.3236
upperneck 6.88928 -21.3774 38.7181
head 5.26566 -14.3323 22.3127
rclavicle 6.11263e-015 -8.74653e-015
rhumerus -5.22692 37.2392 -56.1734
rradius 113.772
rwrist -6.23247
rhand -5.26702 -1.8943
rfingers 7.12502
rthumb 20.5368 -30.828
lclavicle 6.11263e-015 -8.74653e-015
lhumerus -18.4728 17.4119 61.5655
lradius 92.726
lwrist 53.4286
lhand -34.2452 -29.127
lfingers 7.12502
lthumb -7.41629 0.722981
rfemur -59.5918 -12.0511 29.3729
rtibia 79.3869
rfoot -21.834 26.9668
rtoes 11.1455
lfemur -58.2264 20.1515 -27.1433
ltibia 83.213
lfoot -22.2087 -23.1086
ltoes -37.2327
645
root 6.13063 13.4869 28.8143 -514.751 -124.209 -548.698
lowerback 13.3034 2.55828 1.64919
upperback -0.719026 3.65543 0.0600043
thorax -8.13927 1.6937 -1.59607
lowerneck 31.9014 -6.32319 -32.2403
upperneck 7.01594 -21.3042 38.6917
head 5.26641 -14.2814 22.2859
rclavicle 2.95692e-014 -1.03368e-014
rhumerus -3.55926 37.1307 -56.265
rradius 112.738
rwrist -6.32349
rhand -6.93004 -2.00994
rfingers 7.12502
rthumb 18.9381 -31.108
lclavicle 2.95692e-014 -1.03368e-014
lhumerus -17.0097 17.784 62.6548
lradius 91.9857
lwrist 53.6051
lhand -34.4555 -29.5122
lfingers 7.12502
lthumb -7.61926 0.330508
rfemur -62.0328 -12.6416 29.5959
rtibia 81.7423
rfoot -21.4228 27.8163
rtoes 12.578
lfemur -60.0089 20.4649 -27.948
ltibia 84.9628
lfoot -22.5291 -23.9213
ltoes -35.0196
